# xmcd
#
# Track frame offsets:
#	150
#	13582
#	30087
#	45322
#	58860
#	72407
#	86110
#	99490
#	114285
#	129215
#	144597
#	159537
#	170997
#	184760
#	200417
#	212192
#	225505
#	240137
#	251162
#	263045
#	276465
#	289137
#	302775
#	314035
#
# Disc length: 4399 seconds
#
# Revision: 1
# Processed by: cddbd v1.4PL0 Copyright (c) Steve Scherf et al.
# Submitted via: audiograbber 1.80
#
DISCID=5a112d18
DTITLE=Blind Blake - Vol. 4 (1929-32)
DYEAR=1900
DGENRE=
TTITLE0=Sweet Jivin' Mama
TTITLE1=Lonesome Christmas Blues
TTITLE2=Third Degree Blues
TTITLE3=Guitar Chimes
TTITLE4=Blind Arthur's Breakdown
TTITLE5=Baby Lou Blues
TTITLE6=Cold Love Blues
TTITLE7=Papa Charlie Talk About It (P.I)
TTITLE8=Papa Charlie Talk About It (P.II)
TTITLE9=Stingaree Man Blues (Irene Scruggs Vcl)
TTITLE10=Itching Heel (Irene Scruggs Vcl)
TTITLE11=You've Got What I Want (Irene Scruggs Vcl.) 
TTITLE12=Cherry Hill Blues (Irene Scruggs Vcl)
TTITLE13=Diddie Wa Diddie No 2
TTITLE14=Hard Pushing Papa
TTITLE15=What A Low Down Place The Jailhouse Is
TTITLE16=Ain't Gonna Do That No More
TTITLE17=Playing Policy Blues
TTITLE18=Righteous Blues
TTITLE19=Fancy Tricks (Laura Rucker Vcl)
TTITLE20=Rope Stretchin' Blues - Part 2
TTITLE21=Rope Stretchin' Blues - Part 1
TTITLE22=Champagne Charlie Is My Name
TTITLE23=Depression's Gone From Me Blues
EXTD=
EXTT0=
EXTT1=
EXTT2=
EXTT3=
EXTT4=
EXTT5=
EXTT6=
EXTT7=
EXTT8=
EXTT9=
EXTT10=
EXTT11=
EXTT12=
EXTT13=
EXTT14=
EXTT15=
EXTT16=
EXTT17=
EXTT18=
EXTT19=
EXTT20=
EXTT21=
EXTT22=
EXTT23=
PLAYORDER=
